HIERARCHY
ROOT Pelvis
{
	OFFSET 0.000000 0.941512 0.000000
	CHANNELS 6 Xposition Yposition Zposition Zrotation Yrotation Xrotation 
	JOINT Pelvis_L_Hip
	{
		OFFSET 0.000000 0.000000 0.000000
		CHANNELS 3 Zrotation Yrotation Xrotation
		JOINT L_Hip
		{
			OFFSET 0.062321 -0.080322 -0.016990
			CHANNELS 3 Zrotation Yrotation Xrotation
			JOINT L_Knee
			{
				OFFSET 0.093051 -0.381305 -0.029784
				CHANNELS 3 Zrotation Yrotation Xrotation
				JOINT L_Ankle
				{
					OFFSET -0.010371 -0.431000 -0.033614
					CHANNELS 3 Zrotation Yrotation Xrotation
					End Site #name: L_Foot
					{
						OFFSET 0.069299 -0.038670 0.119418
					}
				}
			}
		}
	}
	JOINT Pelvis_R_Hip
	{
		OFFSET 0.000000 0.000000 0.000000
		CHANNELS 3 Zrotation Yrotation Xrotation
		JOINT R_Hip
		{
			OFFSET -0.055334 -0.094904 -0.002373
			CHANNELS 3 Zrotation Yrotation Xrotation
			JOINT R_Knee
			{
				OFFSET -0.064207 -0.384370 -0.019592
				CHANNELS 3 Zrotation Yrotation Xrotation
				JOINT R_Ankle
				{
					OFFSET 0.025418 -0.419734 -0.065953
					CHANNELS 3 Zrotation Yrotation Xrotation
					End Site #name: R_Foot
					{
						OFFSET -0.057233 -0.039888 0.132134
					}
				}
			}
		}
	}
	JOINT Pelvis_Spine1
	{
		OFFSET 0.000000 0.000000 0.000000
		CHANNELS 3 Zrotation Yrotation Xrotation
		JOINT Spine1
		{
			OFFSET -0.005562 0.124093 -0.043360
			CHANNELS 3 Zrotation Yrotation Xrotation
			JOINT Spine2
			{
				OFFSET 0.012244 0.139499 0.029894
				CHANNELS 3 Zrotation Yrotation Xrotation
				JOINT Spine3
				{
					OFFSET -0.002556 0.056561 0.009225
					CHANNELS 3 Zrotation Yrotation Xrotation
					JOINT Spine3_Neck
					{
						OFFSET 0.000000 0.000000 0.000000
						CHANNELS 3 Zrotation Yrotation Xrotation
						JOINT Neck
						{
							OFFSET -0.005205 0.217920 -0.024551
							CHANNELS 3 Zrotation Yrotation Xrotation
							End Site #name: Head
							{
								OFFSET 0.002365 0.091850 0.046637
							}
						}
					}
					JOINT Spine3_L_Collar
					{
						OFFSET 0.000000 0.000000 0.000000
						CHANNELS 3 Zrotation Yrotation Xrotation
						JOINT L_Collar
						{
							OFFSET 0.072225 0.116603 -0.009480
							CHANNELS 3 Zrotation Yrotation Xrotation
							JOINT L_Shoulder
							{
								OFFSET 0.115937 -0.058643 -0.021018
								CHANNELS 3 Zrotation Yrotation Xrotation
								JOINT L_Elbow
								{
									OFFSET 0.021994 -0.254722 -0.024492
									CHANNELS 3 Zrotation Yrotation Xrotation
									End Site #name: L_Wrist
									{
										OFFSET 0.048810 -0.240214 0.103329
									}
								}
							}
						}
					}
					JOINT Spine3_R_Collar
					{
						OFFSET 0.000000 0.000000 0.000000
						CHANNELS 3 Zrotation Yrotation Xrotation
						JOINT R_Collar
						{
							OFFSET -0.073372 0.120704 -0.024611
							CHANNELS 3 Zrotation Yrotation Xrotation
							JOINT R_Shoulder
							{
								OFFSET -0.108089 -0.054969 -0.020504
								CHANNELS 3 Zrotation Yrotation Xrotation
								JOINT R_Elbow
								{
									OFFSET -0.033684 -0.260739 0.009889
									CHANNELS 3 Zrotation Yrotation Xrotation
									End Site #name: R_Wrist
									{
										OFFSET -0.067980 -0.232763 0.118463
									}
								}
							}
						}
					}
				}
			}
		}
	}
}
MOTION
Frames: 7
Frame Time: 0.041667
-0.101555 0.934631 -0.002653 -2.313769 29.443820 3.898660 0.000000 0.000000 0.000000 -0.362377 -1.760579 -7.683451 7.580941 0.103148 -8.730260 -7.101232 -8.402711 5.270861 0.000000 0.000000 0.000000 6.269826 0.977570 -5.467780 -4.709184 -0.091665 -8.831724 2.173184 2.738029 4.693796 0.000000 0.000000 0.000000 3.687219 0.321595 -7.447114 -29.186761 12.123679 38.733707 23.307314 26.117034 -32.167826 0.000000 0.000000 0.000000 0.099995 -0.654618 3.582926 0.000000 0.000000 0.000000 8.917414 -15.370692 -6.918930 -1.394746 0.573640 5.197340 3.378236 -25.860538 -72.583618 0.000000 0.000000 0.000000 -27.234498 45.800302 -39.373985 -9.154414 -0.835506 9.908340 -7.596760 6.679868 -39.973268 
-0.102488 0.934428 -0.002646 -2.352586 29.680573 3.891814 0.000000 0.000000 0.000000 -0.286875 -1.802497 -7.840158 7.659591 0.097165 -8.622991 -7.227293 -8.604255 5.331683 0.000000 0.000000 0.000000 6.348845 0.976659 -5.463062 -4.705721 -0.091434 -8.834026 2.080436 2.468900 4.699800 0.000000 0.000000 0.000000 3.803850 0.304387 -7.434754 -29.937861 12.317739 38.378493 23.895441 26.677853 -31.899373 0.000000 0.000000 0.000000 0.361721 -0.773725 3.501113 0.000000 0.000000 0.000000 8.934670 -15.239991 -6.812199 -1.899054 0.505526 4.341116 2.707429 -26.305747 -71.673131 0.000000 0.000000 0.000000 -30.066193 46.982257 -42.357965 -10.544607 -0.671761 6.890049 -9.165814 1.960864 -29.329396 
-0.103165 0.934299 -0.002345 -2.383785 30.126712 3.888068 0.000000 0.000000 0.000000 -0.243790 -1.839788 -7.986362 7.773904 0.093444 -8.599868 -7.431074 -8.959977 5.415259 0.000000 0.000000 0.000000 6.383444 0.969009 -5.420504 -4.681854 -0.086791 -8.793171 1.906001 2.045006 4.618370 0.000000 0.000000 0.000000 3.904388 0.312800 -7.592123 -30.669256 12.518882 38.401203 24.573164 27.206986 -31.689837 0.000000 0.000000 0.000000 0.456074 -0.779538 3.158724 0.000000 0.000000 0.000000 8.761476 -14.956392 -6.645533 -2.194754 0.413743 3.438849 1.891086 -26.971852 -70.675881 0.000000 0.000000 0.000000 -31.307055 47.633651 -43.910216 -11.124714 -0.592327 4.671721 -12.228624 -2.400520 -21.094492 
-0.103522 0.934094 -0.001889 -2.401913 30.666425 3.888105 0.000000 0.000000 0.000000 -0.201154 -1.864471 -8.083827 7.841906 0.093751 -8.680402 -7.641516 -9.384495 5.476336 0.000000 0.000000 0.000000 6.372761 0.956402 -5.350660 -4.640155 -0.081118 -8.734125 1.699574 1.548683 4.511877 0.000000 0.000000 0.000000 3.999324 0.335859 -7.852346 -31.219332 12.678074 38.729075 25.088037 27.529231 -31.596362 0.000000 0.000000 0.000000 0.538888 -0.763571 2.714409 0.000000 0.000000 0.000000 8.553058 -14.606363 -6.451885 -2.322141 0.326005 2.666590 1.227751 -27.598945 -69.990091 0.000000 0.000000 0.000000 -31.417373 47.809984 -44.224816 -10.887361 -0.529890 2.860211 -15.432195 -5.592531 -15.407721 
-0.103590 0.933872 -0.001358 -2.403023 31.133444 3.939442 0.000000 0.000000 0.000000 -0.144944 -1.889873 -8.182028 7.837952 0.095454 -8.783618 -7.800013 -9.758995 5.499709 0.000000 0.000000 0.000000 6.327333 0.954498 -5.331020 -4.606007 -0.074426 -8.670439 1.531104 1.111210 4.461246 0.000000 0.000000 0.000000 4.059074 0.376525 -8.217149 -31.483956 12.741053 39.089276 25.363370 27.634362 -31.460516 0.000000 0.000000 0.000000 0.598106 -0.759890 2.461377 0.000000 0.000000 0.000000 8.532235 -14.190695 -6.184374 -2.497302 0.241129 1.923134 0.746771 -28.121037 -69.683883 0.000000 0.000000 0.000000 -31.142371 47.642262 -43.922435 -9.716291 -0.452077 1.510061 -17.911112 -7.625966 -11.563627 
-0.103519 0.933518 -0.000976 -2.366006 31.437926 4.099635 0.000000 0.000000 0.000000 -0.105580 -1.942436 -8.389457 7.780336 0.093393 -8.770596 -7.876064 -10.012797 5.479997 0.000000 0.000000 0.000000 6.239857 0.975186 -5.420982 -4.586769 -0.070598 -8.635122 1.444825 0.836184 4.501452 0.000000 0.000000 0.000000 4.051899 0.437138 -8.680950 -31.588214 12.767711 39.416040 25.587514 27.684816 -31.242622 0.000000 0.000000 0.000000 0.465272 -0.692497 2.396376 0.000000 0.000000 0.000000 8.625021 -13.674672 -5.829710 -2.809067 0.147708 1.113361 0.352180 -28.561203 -69.552525 0.000000 0.000000 0.000000 -30.386043 47.212201 -43.046079 -7.645613 -0.353196 0.834633 -19.810857 -8.930356 -9.645790 
-0.103329 0.933624 -0.000755 -2.303910 31.509476 4.077105 0.000000 0.000000 0.000000 -0.129702 -1.944792 -8.400820 7.714630 0.088479 -8.653971 -7.893182 -10.136747 5.449947 0.000000 0.000000 0.000000 6.166329 0.959546 -5.341084 -4.557340 -0.067848 -8.594086 1.368867 0.765304 4.311662 0.000000 0.000000 0.000000 4.142955 0.395031 -8.440661 -31.580117 12.768689 39.502688 25.520047 27.587005 -31.266657 0.000000 0.000000 0.000000 0.372931 -0.613566 2.109186 0.000000 0.000000 0.000000 8.552131 -13.441180 -5.698166 -2.773682 0.118731 0.884747 0.375490 -28.655921 -69.739433 0.000000 0.000000 0.000000 -29.155455 47.076005 -42.143351 -5.905781 -0.322598 1.253850 -20.984308 -9.637015 -9.512102 
